<svg viewBox="0 0 191.54 89.86" xmlns="http://www.w3.org/2000/svg" data-sanitized-data-name="Layer 1" data-name="Layer 1" id="Layer_1">
  <defs>
    <style>
      .cls-1 {
        fill: #000;
      }

      .cls-1, .cls-2 {
        stroke-width: 0px;
      }

      .cls-2 {
        fill: #fff;
      }
    </style>
  </defs>
  <g id="Nic">
    <rect ry="15.09" rx="15.09" height="89.86" width="191.54" y="0" x="0" class="cls-1" id="Rectangle"></rect>
    <g data-sanitized-data-name="Nic" data-name="Nic" id="Nic-2">
      <path d="M96.91,27.24h7.74l14.02,24.64v-24.64h6.88v35.33h-7.38l-14.38-25.07v25.07h-6.88V27.24Z" class="cls-2"></path>
      <path d="M139.22,62.58h-7.34V27.24h7.34v35.33Z" class="cls-2"></path>
      <path d="M149.5,30.94c2.85-2.91,6.47-4.36,10.86-4.36,5.88,0,10.18,1.95,12.9,5.85,1.5,2.19,2.31,4.39,2.42,6.59h-7.38c-.47-1.69-1.07-2.97-1.81-3.84-1.32-1.53-3.26-2.3-5.85-2.3s-4.71,1.08-6.22,3.25c-1.52,2.17-2.28,5.23-2.28,9.19s.8,6.93,2.4,8.9c1.6,1.97,3.64,2.96,6.11,2.96s4.46-.85,5.79-2.54c.73-.91,1.34-2.28,1.83-4.1h7.33c-.63,3.85-2.25,6.98-4.85,9.4-2.6,2.41-5.93,3.62-10,3.62-5.03,0-8.98-1.63-11.86-4.89-2.88-3.28-4.32-7.77-4.32-13.47,0-6.17,1.64-10.92,4.91-14.26Z" class="cls-2"></path>
    </g>
    <g id="Icon">
      <rect ry="12.02" rx="12.02" height="72.18" width="72.18" y="8.87" x="8.87" class="cls-2" id="Square"></rect>
      <g data-sanitized-data-name="Nic" data-name="Nic" id="Nic-3">
        <polygon points="31.37 44.15 23.43 34.64 17.63 34.64 17.63 55.55 24.5 55.55 24.5 46.04 32.45 55.55 38.24 55.55 38.24 34.64 31.37 34.64 31.37 44.15" class="cls-1"></polygon>
        <rect height="20.91" width="7.05" y="34.64" x="41.64" class="cls-1"></rect>
        <path d="M65.79,49.68c-.75.43-1.59.64-2.52.64-.74,0-1.4-.12-2-.36-.6-.24-1.11-.59-1.54-1.05-.43-.46-.76-1.01-1-1.66-.24-.65-.36-1.37-.36-2.17s.12-1.52.36-2.16c.24-.65.57-1.2,1-1.66.43-.46.94-.81,1.54-1.05.6-.24,1.26-.36,2-.36.94,0,1.78.21,2.52.64s1.43,1.03,2.05,1.81l4.45-3.97c-1.04-1.35-2.34-2.39-3.93-3.11-1.58-.72-3.4-1.07-5.45-1.07-1.67,0-3.22.26-4.64.79-1.42.53-2.66,1.28-3.7,2.25-1.05.98-1.86,2.13-2.43,3.46-.58,1.33-.87,2.81-.87,4.42s.29,3.09.87,4.42c.58,1.33,1.39,2.49,2.43,3.46,1.05.98,2.28,1.73,3.7,2.26,1.42.53,2.97.79,4.64.79,2.05,0,3.87-.36,5.45-1.09,1.58-.73,2.89-1.76,3.93-3.09l-4.45-3.97c-.62.78-1.3,1.38-2.05,1.81Z" class="cls-1"></path>
      </g>
    </g>
  </g>
</svg>